<svg width="51" height="45" viewBox="0 0 51 45" fill="none" xmlns="http://www.w3.org/2000/svg">
<path d="M23.1987 29.9502C27.051 31.3742 30.9918 32.5481 34.9964 33.4645C33.1564 35.2353 30.854 36.4552 28.3518 36.9852C25.8496 37.5152 23.2482 37.3338 20.8444 36.4619C18.4407 35.5899 16.3312 34.0625 14.7566 32.0536C13.1819 30.0448 12.2056 27.6355 11.9388 25.1005C15.5846 26.9544 19.3456 28.5742 23.1987 29.9502ZM23.8071 28.2985C19.7054 26.8369 15.7179 25.0749 11.8771 23.0271C11.9883 20.2326 12.9716 17.5423 14.6898 15.3309C14.9661 14.9795 15.26 14.6369 15.5716 14.303C15.7127 14.1537 15.8626 14.0043 16.0124 13.8637C18.5439 11.3865 21.9518 10.001 25.5 10.0068C28.8724 10.0097 32.1246 11.2547 34.6313 13.5026C37.138 15.7504 38.722 18.8424 39.0788 22.1837C39.1321 22.6592 39.1586 23.1373 39.1582 23.6158C39.1582 23.8091 39.1582 24.0111 39.1582 24.2044C39.0512 27.0051 38.0677 29.7023 36.3454 31.9182C32.0839 31.0144 27.8935 29.8047 23.8071 28.2985ZM18.2609 16.5697C19.4032 15.4227 20.8011 14.5606 22.341 14.0537C23.8809 13.5469 25.5192 13.4095 27.1224 13.6529C27.2377 13.6729 27.3559 13.6699 27.4701 13.644C27.5842 13.6181 27.692 13.5698 27.7872 13.5019C27.8824 13.434 27.9631 13.3479 28.0246 13.2487C28.0861 13.1494 28.1271 13.0389 28.1452 12.9237C28.1707 12.6985 28.1078 12.4722 27.9698 12.2922C27.8318 12.1121 27.6293 11.9921 27.4046 11.9572C26.7758 11.8432 26.139 11.7786 25.5 11.764C23.9127 11.7696 22.3424 12.0893 20.8802 12.7047C19.418 13.32 18.0931 14.2187 16.9824 15.3485C16.8181 15.5131 16.726 15.7358 16.726 15.9679C16.726 16.2 16.8181 16.4227 16.9824 16.5873C17.1476 16.7509 17.371 16.8428 17.604 16.8428C17.8369 16.8428 18.0604 16.7509 18.2256 16.5873L18.2609 16.5697ZM11.8859 24.4768C11.8859 24.1868 11.8859 23.8881 11.8859 23.5982C11.8859 23.3083 11.8859 23.2116 11.8859 23.0184C11.2863 22.7021 10.722 22.3858 10.1841 22.0607C5.14938 19.1263 2.57469 16.5697 2.99793 15.4715C3.31535 14.5929 6.20747 13.8637 12.7765 14.9883C13.1572 14.4283 13.5787 13.8968 14.0373 13.3981C9.16131 12.5195 2.46006 11.8342 1.3667 14.8389C0.484959 17.3692 4.27645 20.7956 10.1312 24.0638C10.6691 24.3626 11.2158 24.6613 11.7889 24.9424L11.9652 25.0303C11.9652 24.8545 11.9476 24.6788 11.9123 24.5031L11.8859 24.4768ZM40.9305 23.1765C40.9305 23.3258 40.9305 23.4664 40.9305 23.6158C40.9327 24.1233 40.9092 24.6306 40.86 25.1357C46.5648 28.4479 48.3636 30.8903 48.0373 31.7776C47.8169 32.375 46.027 33.236 40.7101 32.6123C39.9253 32.5156 39.1053 32.4014 38.2588 32.252L36.9627 32.0412H36.8568L36.3983 31.9446C36.2925 32.0851 36.1867 32.2169 36.0721 32.3487C35.7732 32.7079 35.4553 33.051 35.1198 33.3766L35.0493 33.4469C35.7459 33.5963 36.4072 33.7368 37.0685 33.8598C37.0144 33.9312 36.9555 33.9987 36.8921 34.0619L37.0773 33.8598C38.2941 34.0882 39.4492 34.2727 40.5425 34.3957C41.7125 34.5439 42.8902 34.6231 44.0695 34.633C47.2967 34.633 49.1924 33.8862 49.7303 32.419C50.7884 29.4143 45.3128 25.6453 40.9305 23.1765ZM43.0202 10.6394C44.015 10.6411 44.9879 10.3487 45.8158 9.79909C46.6437 9.2495 47.2892 8.46747 47.6707 7.55206C48.0522 6.63664 48.1525 5.62901 47.9588 4.65677C47.7652 3.68454 47.2863 2.79142 46.5829 2.09054C45.8795 1.38966 44.9831 0.912531 44.0074 0.719584C43.0316 0.526637 42.0204 0.626548 41.1016 1.00667C40.1829 1.38678 39.398 2.03001 38.8465 2.85488C38.2949 3.67976 38.0014 4.64918 38.0031 5.64038C38.0054 6.96549 38.5348 8.23566 39.4752 9.17265C40.4156 10.1096 41.6903 10.6371 43.0202 10.6394ZM27.2635 4.41917C27.4239 4.41917 27.5808 4.37177 27.7142 4.28295C27.8476 4.19414 27.9515 4.0679 28.0129 3.92021C28.0743 3.77252 28.0904 3.61 28.0591 3.45321C28.0278 3.29642 27.9505 3.1524 27.8371 3.03936C27.7236 2.92632 27.5791 2.84933 27.4217 2.81815C27.2644 2.78696 27.1013 2.80297 26.9531 2.86414C26.8048 2.92532 26.6781 3.02892 26.589 3.16184C26.4999 3.29476 26.4523 3.45103 26.4523 3.61089C26.4523 3.82526 26.5377 4.03085 26.6899 4.18243C26.842 4.33402 27.0483 4.41917 27.2635 4.41917ZM15.8008 1.78348C15.9613 1.78348 16.1181 1.73608 16.2515 1.64726C16.3849 1.55845 16.4889 1.43221 16.5503 1.28452C16.6117 1.13683 16.6277 0.974309 16.5964 0.817518C16.5651 0.660728 16.4879 0.516706 16.3744 0.403666C16.261 0.290627 16.1164 0.213646 15.9591 0.182458C15.8017 0.151271 15.6386 0.167277 15.4904 0.228454C15.3422 0.28963 15.2155 0.39323 15.1263 0.52615C15.0372 0.659071 14.9896 0.815343 14.9896 0.975206C14.9896 1.08135 15.0106 1.18646 15.0514 1.28452C15.0921 1.38259 15.1519 1.47169 15.2272 1.54674C15.3026 1.6218 15.392 1.68134 15.4904 1.72196C15.5888 1.76258 15.6943 1.78348 15.8008 1.78348ZM42.3237 16.7893C42.3237 16.9492 42.3712 17.1055 42.4604 17.2384C42.5495 17.3713 42.6762 17.4749 42.8244 17.5361C42.9726 17.5973 43.1358 17.6133 43.2931 17.5821C43.4505 17.5509 43.595 17.4739 43.7085 17.3609C43.8219 17.2478 43.8992 17.1038 43.9305 16.947C43.9618 16.7902 43.9457 16.6277 43.8843 16.48C43.8229 16.3323 43.7189 16.2061 43.5855 16.1173C43.4521 16.0285 43.2953 15.9811 43.1349 15.9811C42.9197 15.9811 42.7134 16.0662 42.5612 16.2178C42.4091 16.3694 42.3237 16.575 42.3237 16.7893ZM50.1888 14.0834C50.3492 14.0834 50.5061 14.036 50.6395 13.9471C50.7729 13.8583 50.8769 13.7321 50.9383 13.5844C50.9996 13.4367 51.0157 13.2742 50.9844 13.1174C50.9531 12.9606 50.8759 12.8166 50.7624 12.7036C50.649 12.5905 50.5044 12.5135 50.3471 12.4823C50.1897 12.4512 50.0266 12.4672 49.8784 12.5283C49.7301 12.5895 49.6034 12.6931 49.5143 12.826C49.4252 12.959 49.3776 13.1152 49.3776 13.2751C49.3776 13.3812 49.3986 13.4863 49.4393 13.5844C49.4801 13.6825 49.5399 13.7716 49.6152 13.8466C49.6905 13.9217 49.7799 13.9812 49.8784 14.0218C49.9768 14.0625 50.0823 14.0834 50.1888 14.0834ZM50.1888 22.131C50.0284 22.131 49.8715 22.1784 49.7381 22.2672C49.6047 22.356 49.5007 22.4823 49.4393 22.63C49.3779 22.7777 49.3619 22.9402 49.3932 23.097C49.4245 23.2538 49.5017 23.3978 49.6152 23.5108C49.7286 23.6239 49.8732 23.7008 50.0305 23.732C50.1879 23.7632 50.351 23.7472 50.4992 23.686C50.6475 23.6249 50.7742 23.5213 50.8633 23.3883C50.9524 23.2554 51 23.0991 51 22.9393C51 22.7249 50.9145 22.5193 50.7624 22.3677C50.6103 22.2162 50.4039 22.131 50.1888 22.131ZM0.811204 22.131C0.650763 22.131 0.493925 22.1784 0.360523 22.2672C0.227122 22.356 0.123148 22.4823 0.0617496 22.63C0.000351547 22.7777 -0.0157131 22.9402 0.0155874 23.097C0.0468878 23.2538 0.124148 23.3978 0.237596 23.5108C0.351045 23.6239 0.495588 23.7008 0.652946 23.732C0.810304 23.7632 0.97341 23.7472 1.12164 23.686C1.26987 23.6249 1.39656 23.5213 1.48569 23.3883C1.57483 23.2554 1.62241 23.0991 1.62241 22.9393C1.62241 22.7249 1.53694 22.5193 1.38481 22.3677C1.23268 22.2162 1.02635 22.131 0.811204 22.131ZM5.21992 30.9166C5.05948 30.9166 4.90264 30.964 4.76924 31.0529C4.63584 31.1417 4.53186 31.2679 4.47046 31.4156C4.40907 31.5633 4.393 31.7258 4.4243 31.8826C4.4556 32.0394 4.53286 32.1834 4.64631 32.2965C4.75976 32.4095 4.9043 32.4865 5.06166 32.5177C5.21902 32.5488 5.38212 32.5328 5.53035 32.4717C5.67858 32.4105 5.80527 32.3069 5.89441 32.174C5.98354 32.041 6.03112 31.8848 6.03112 31.7249C6.03112 31.5105 5.94565 31.305 5.79352 31.1534C5.64139 31.0018 5.43506 30.9166 5.21992 30.9166ZM2.57469 37.9451C2.41425 37.9451 2.25741 37.9925 2.12401 38.0814C1.99061 38.1702 1.88663 38.2964 1.82523 38.4441C1.76384 38.5918 1.74777 38.7543 1.77907 38.9111C1.81037 39.0679 1.88763 39.2119 2.00108 39.325C2.11453 39.438 2.25907 39.515 2.41643 39.5462C2.57379 39.5774 2.7369 39.5613 2.88512 39.5002C3.03335 39.439 3.16004 39.3354 3.24918 39.2025C3.33832 39.0695 3.38589 38.9133 3.38589 38.7534C3.38589 38.6473 3.36491 38.5422 3.32414 38.4441C3.28338 38.346 3.22362 38.2569 3.1483 38.1819C3.07297 38.1068 2.98354 38.0473 2.88512 38.0067C2.7867 37.966 2.68122 37.9451 2.57469 37.9451ZM38.7261 37.9451C38.5657 37.9451 38.4089 37.9925 38.2755 38.0814C38.1421 38.1702 38.0381 38.2964 37.9767 38.4441C37.9153 38.5918 37.8992 38.7543 37.9305 38.9111C37.9618 39.0679 38.0391 39.2119 38.1525 39.325C38.266 39.438 38.4105 39.515 38.5679 39.5462C38.7252 39.5774 38.8883 39.5613 39.0366 39.5002C39.1848 39.439 39.3115 39.3354 39.4006 39.2025C39.4898 39.0695 39.5373 38.9133 39.5373 38.7534C39.5373 38.6473 39.5164 38.5422 39.4756 38.4441C39.4348 38.346 39.3751 38.2569 39.2998 38.1819C39.2244 38.1068 39.135 38.0473 39.0366 38.0067C38.9382 37.966 38.8327 37.9451 38.7261 37.9451ZM44.0166 42.338C43.8562 42.338 43.6993 42.3854 43.5659 42.4742C43.4325 42.563 43.3285 42.6892 43.2671 42.8369C43.2057 42.9846 43.1897 43.1471 43.221 43.3039C43.2523 43.4607 43.3295 43.6047 43.443 43.7178C43.5564 43.8308 43.701 43.9078 43.8583 43.939C44.0157 43.9702 44.1788 43.9542 44.327 43.893C44.4753 43.8318 44.602 43.7282 44.6911 43.5953C44.7802 43.4624 44.8278 43.3061 44.8278 43.1462C44.8278 42.9319 44.7423 42.7263 44.5902 42.5747C44.4381 42.4231 44.2317 42.338 44.0166 42.338ZM7.86515 7.93342C8.02559 7.93342 8.18242 7.88602 8.31583 7.7972C8.44923 7.70839 8.5532 7.58216 8.6146 7.43446C8.676 7.28677 8.69206 7.12425 8.66076 6.96746C8.62946 6.81067 8.5522 6.66665 8.43875 6.55361C8.3253 6.44057 8.18076 6.36359 8.0234 6.3324C7.86605 6.30121 7.70294 6.31722 7.55471 6.3784C7.40648 6.43957 7.27979 6.54317 7.19065 6.67609C7.10152 6.80901 7.05394 6.96528 7.05394 7.12515C7.05394 7.33952 7.13941 7.5451 7.29154 7.69669C7.44367 7.84827 7.65 7.93342 7.86515 7.93342ZM15.7038 6.24658C15.7038 6.43946 15.7612 6.62801 15.8688 6.78838C15.9763 6.94875 16.1292 7.07374 16.308 7.14756C16.4869 7.22137 16.6837 7.24068 16.8735 7.20305C17.0634 7.16542 17.2378 7.07254 17.3746 6.93616C17.5115 6.79977 17.6047 6.62601 17.6425 6.43684C17.6803 6.24767 17.6609 6.05158 17.5868 5.87339C17.5127 5.69519 17.3873 5.54289 17.2263 5.43573C17.0654 5.32857 16.8761 5.27138 16.6826 5.27138C16.423 5.27138 16.174 5.37412 15.9905 5.55701C15.807 5.7399 15.7038 5.98794 15.7038 6.24658ZM8.74689 36.8996C8.55331 36.8996 8.36408 36.9568 8.20313 37.064C8.04218 37.1712 7.91673 37.3235 7.84266 37.5017C7.76858 37.6799 7.74919 37.8759 7.78696 38.0651C7.82472 38.2543 7.91794 38.428 8.05482 38.5644C8.1917 38.7008 8.36609 38.7937 8.55595 38.8313C8.7458 38.8689 8.94259 38.8496 9.12143 38.7758C9.30027 38.702 9.45313 38.577 9.56068 38.4166C9.66822 38.2563 9.72562 38.0677 9.72562 37.8749C9.72562 37.6162 9.62251 37.3682 9.43896 37.1853C9.25541 37.0024 9.00646 36.8996 8.74689 36.8996ZM27.2635 43.0496C27.0699 43.0496 26.8807 43.1068 26.7197 43.2139C26.5588 43.3211 26.4333 43.4734 26.3593 43.6516C26.2852 43.8298 26.2658 44.0259 26.3036 44.215C26.3413 44.4042 26.4345 44.578 26.5714 44.7144C26.7083 44.8508 26.8827 44.9436 27.0725 44.9813C27.2624 45.0189 27.4592 44.9996 27.638 44.9258C27.8169 44.852 27.9697 44.727 28.0773 44.5666C28.1848 44.4062 28.2422 44.2177 28.2422 44.0248C28.2422 43.7662 28.1391 43.5181 27.9556 43.3352C27.772 43.1523 27.5231 43.0496 27.2635 43.0496ZM31.6722 1.95041C31.8658 1.95041 32.055 1.89322 32.216 1.78606C32.3769 1.6789 32.5024 1.5266 32.5764 1.3484C32.6505 1.1702 32.6699 0.974124 32.6321 0.784952C32.5944 0.595781 32.5011 0.422016 32.3643 0.285631C32.2274 0.149246 32.053 0.0563673 31.8631 0.0187388C31.6733 -0.0188897 31.4765 0.000422414 31.2977 0.0742334C31.1188 0.148044 30.966 0.273039 30.8584 0.433411C30.7509 0.593782 30.6935 0.782328 30.6935 0.975206C30.6935 1.23385 30.7966 1.48189 30.9801 1.66478C31.1637 1.84767 31.4126 1.95041 31.6722 1.95041Z" fill="#FEB821"/>
</svg>
